<?xml version="1.0" standalone="no"?>
<!DOCTYPE svg PUBLIC "-//W3C//DTD SVG 20010904//EN"
 "http://www.w3.org/TR/2001/REC-SVG-20010904/DTD/svg10.dtd">
<svg version="1.0" xmlns="http://www.w3.org/2000/svg"
 width="980.000000pt" height="980.000000pt" viewBox="0 0 980.000000 980.000000"
 preserveAspectRatio="xMidYMid meet">

<g transform="translate(0.000000,980.000000) scale(0.100000,-0.100000)"
fill="#1F7043" stroke="none">
<path d="M3490 7561 l-1715 -287 -3 -2396 -2 -2396 27 -6 c44 -9 3427 -526
3441 -526 9 0 12 65 12 275 l0 275 1323 2 c1277 3 1323 4 1360 22 22 11 51 37
65 59 l27 41 3 2245 c2 1538 0 2257 -8 2282 -14 49 -44 86 -91 109 -37 20 -64
20 -1359 20 l-1320 0 0 285 0 285 -22 -1 c-13 -1 -795 -130 -1738 -288z m4348
-2653 l2 -2168 -1300 0 -1300 0 0 220 0 220 450 0 450 0 0 260 0 260 -447 2
-448 3 -3 103 -3 102 451 0 450 0 0 260 0 260 -447 2 -448 3 -3 103 -3 102
451 0 450 0 0 260 0 260 -450 0 -450 0 0 105 0 105 450 0 450 0 0 260 0 260
-450 0 -451 0 3 103 3 102 448 3 447 2 0 260 0 260 -450 0 -450 0 0 223 c0
123 3 227 7 230 3 4 587 6 1297 5 l1291 -3 3 -2167z m-3598 983 c0 -5 -110
-226 -245 -491 l-245 -482 246 -475 c135 -261 243 -477 240 -480 -10 -10 -406
20 -414 31 -5 6 -69 161 -142 344 -73 183 -136 330 -140 325 -4 -4 -65 -147
-135 -318 -71 -170 -133 -315 -139 -321 -8 -9 -58 -7 -193 5 -100 9 -184 19
-187 22 -4 3 93 197 214 430 l220 424 -204 455 c-112 250 -202 457 -199 460
10 10 385 25 393 15 4 -5 52 -149 105 -320 54 -170 100 -313 104 -317 4 -5 78
145 165 332 88 187 159 341 160 341 1 1 84 7 186 14 102 6 191 13 198 13 6 1
12 -2 12 -7z"/>
<path d="M6360 6360 l0 -260 465 0 465 0 -2 258 -3 257 -462 3 -463 2 0 -260z"/>
<path d="M6360 5630 l0 -260 465 0 465 0 -2 258 -3 257 -462 3 -463 2 0 -260z"/>
<path d="M6360 4900 l0 -260 463 2 462 3 0 255 0 255 -462 3 -463 2 0 -260z"/>
<path d="M6360 4170 l0 -260 463 2 462 3 3 258 2 257 -465 0 -465 0 0 -260z"/>
<path d="M6360 3440 l0 -260 463 2 462 3 3 258 2 257 -465 0 -465 0 0 -260z"/>
</g>
</svg>
